<svg xmlns="http://www.w3.org/2000/svg" width="225.388" height="45.582" viewBox="0 0 225.388 45.582"><g data-name="Group 147"><g data-name="Group 146"><path data-name="Path 234" d="M.183 18.26q0-1.464-.092-2.745T0 13.177h3.388c0 .584.011 1.163.044 1.743s.044 1.175.044 1.786h.091a6.151 6.151 0 011.032-1.514 7.342 7.342 0 011.579-1.3 8.367 8.367 0 012.061-.915 8.556 8.556 0 012.468-.345 5.494 5.494 0 01.735.047 3.5 3.5 0 01.732.182l-.229 3.618a6.55 6.55 0 00-1.923-.274 5.409 5.409 0 00-4.781 2.128 10.005 10.005 0 00-1.489 5.836v10.43H.183z"/><path data-name="Path 235" d="M14.233 23.892a11.673 11.673 0 01.867-4.576 10.787 10.787 0 012.383-3.546 10.462 10.462 0 013.614-2.311 13.089 13.089 0 019.151 0 10.534 10.534 0 013.617 2.311 10.8 10.8 0 012.38 3.546 12.476 12.476 0 010 9.153 10.8 10.8 0 01-2.38 3.545 10.557 10.557 0 01-3.617 2.308 13.113 13.113 0 01-9.151 0 10.485 10.485 0 01-3.614-2.311 10.781 10.781 0 01-2.383-3.545 11.681 11.681 0 01-.867-4.574zm3.844 0a9.106 9.106 0 00.525 3.136 7.259 7.259 0 003.935 4.211 8.256 8.256 0 006.273 0 7.256 7.256 0 003.936-4.211 9.632 9.632 0 000-6.273 7.238 7.238 0 00-3.936-4.207 8.275 8.275 0 00-6.273 0 7.232 7.232 0 00-2.4 1.692 7.318 7.318 0 00-1.534 2.515 9.141 9.141 0 00-.526 3.137z"/><path data-name="Path 236" d="M42.651 0h3.571v22.607l9.747-9.43h5.082l-10.34 9.751 11.4 11.671h-5.272L46.222 23.337v11.262h-3.571z"/><path data-name="Path 237" d="M65.533 0h3.57v22.607l9.748-9.43h5.079l-10.34 9.751 11.4 11.671h-5.269L69.103 23.337v11.262h-3.57z"/><path data-name="Path 238" d="M120.269 30.708a10.854 10.854 0 01-4.211 3.454 13.338 13.338 0 01-5.309.984 11.076 11.076 0 01-4.532-.892 10.215 10.215 0 01-3.41-2.4 10.608 10.608 0 01-2.151-3.57 12.7 12.7 0 01-.752-4.4 12.289 12.289 0 01.821-4.554 10.547 10.547 0 012.289-3.568 10.221 10.221 0 013.479-2.311 11.466 11.466 0 014.392-.826 10.951 10.951 0 014.12.755 8.883 8.883 0 013.225 2.2 9.864 9.864 0 012.084 3.524 14.261 14.261 0 01.732 4.739v1.141h-17.3a7.454 7.454 0 00.666 2.633 7.572 7.572 0 001.486 2.2 6.852 6.852 0 002.148 1.487 6.586 6.586 0 002.7.552 8.515 8.515 0 003.933-.826 8.959 8.959 0 002.885-2.426zm-3.065-8.741a6.17 6.17 0 00-1.788-4.394 6.41 6.41 0 00-4.667-1.647 6.6 6.6 0 00-7 6.041z"/><path data-name="Path 239" d="M126.4 0h3.57v16.291h.091a10.581 10.581 0 013.408-2.7 9.51 9.51 0 014.278-.962 12.129 12.129 0 014.6.848 10.274 10.274 0 013.549 2.357 10.917 10.917 0 012.288 3.568 12.64 12.64 0 010 8.971 11.114 11.114 0 01-2.266 3.57 10.242 10.242 0 01-3.41 2.355 10.58 10.58 0 01-4.212.848 9.915 9.915 0 01-5.055-1.258 8.146 8.146 0 01-3.181-3.089h-.091v3.8h-3.57zm3.57 23.889a9.144 9.144 0 00.523 3.136 7.277 7.277 0 003.938 4.211 8.248 8.248 0 006.27 0 7.248 7.248 0 003.939-4.211 9.659 9.659 0 000-6.273 7.39 7.39 0 00-1.534-2.515 7.3 7.3 0 00-2.405-1.692 8.267 8.267 0 00-6.27 0 7.26 7.26 0 00-3.938 4.207 9.178 9.178 0 00-.523 3.137z"/><path data-name="Path 240" d="M153.309 23.892a11.673 11.673 0 01.868-4.576 10.828 10.828 0 012.38-3.546 10.549 10.549 0 013.617-2.311 13.089 13.089 0 019.151 0 10.5 10.5 0 013.617 2.311 10.8 10.8 0 012.38 3.546 12.476 12.476 0 010 9.153 10.8 10.8 0 01-2.38 3.545 10.528 10.528 0 01-3.617 2.311 13.113 13.113 0 01-9.151 0 10.572 10.572 0 01-3.617-2.311 10.821 10.821 0 01-2.38-3.545 11.681 11.681 0 01-.868-4.577zm3.844 0a9.033 9.033 0 00.528 3.136 7.218 7.218 0 003.936 4.211 8.244 8.244 0 006.268 0 7.234 7.234 0 003.935-4.211 9.6 9.6 0 000-6.273 7.217 7.217 0 00-3.935-4.207 8.263 8.263 0 00-6.268 0 7.2 7.2 0 00-3.936 4.207 9.068 9.068 0 00-.53 3.137z"/><path data-name="Path 241" d="M181.73 18.26q0-1.464-.092-2.745t-.092-2.338h3.388c0 .584.017 1.163.045 1.743s.047 1.175.047 1.786h.089a6.1 6.1 0 011.031-1.509 7.278 7.278 0 011.58-1.307 8.382 8.382 0 012.059-.915 8.555 8.555 0 012.471-.345 9.452 9.452 0 013.639.641 6.866 6.866 0 012.539 1.786 7.249 7.249 0 011.489 2.767 12.369 12.369 0 01.479 3.546v13.229h-3.57V21.737a6.862 6.862 0 00-1.188-4.256 4.374 4.374 0 00-3.709-1.554 6.992 6.992 0 00-3 .594 5.306 5.306 0 00-2.057 1.692 7.537 7.537 0 00-1.191 2.612 13.244 13.244 0 00-.392 3.341v10.433h-3.566z"/><path data-name="Path 242" d="M215.046 39.49a30.82 30.82 0 01-1.122 2.495 7.486 7.486 0 01-1.371 1.923 5.468 5.468 0 01-1.924 1.235 7.544 7.544 0 01-2.722.436 14.672 14.672 0 01-1.625-.089 4.655 4.655 0 01-1.581-.458l.458-3.112a4.172 4.172 0 001.144.3 11.85 11.85 0 001.374.069 3.186 3.186 0 002.562-.961 8.43 8.43 0 001.421-2.564l1.46-4.026-8.875-21.559h4.163l6.636 16.8h.092l6.36-16.8h3.889z"/></g></g></svg>